<mxfile host="Electron" agent="Mozilla/5.0 (Windows NT 10.0; Win64; x64) AppleWebKit/537.36 (KHTML, like Gecko) draw.io/24.7.17 Chrome/128.0.6613.36 Electron/32.0.1 Safari/537.36" version="24.7.17">
  <diagram name="Pagina-1" id="MxI3Tjo6uBr8hgHuKqNQ">
    <mxGraphModel dx="676" dy="391" grid="1" gridSize="10" guides="1" tooltips="1" connect="1" arrows="1" fold="1" page="1" pageScale="1" pageWidth="827" pageHeight="1169" math="1" shadow="0">
      <root>
        <mxCell id="0" />
        <mxCell id="1" parent="0" />
        <mxCell id="ZXwB_dehdOLrY-nZqnuy-7" style="edgeStyle=orthogonalEdgeStyle;rounded=0;orthogonalLoop=1;jettySize=auto;html=1;entryX=0;entryY=0.5;entryDx=0;entryDy=0;fillColor=#fad9d5;strokeColor=#ae4132;" edge="1" parent="1" source="ZXwB_dehdOLrY-nZqnuy-1" target="ZXwB_dehdOLrY-nZqnuy-2">
          <mxGeometry relative="1" as="geometry" />
        </mxCell>
        <mxCell id="ZXwB_dehdOLrY-nZqnuy-1" value="\(x\)" style="ellipse;whiteSpace=wrap;html=1;aspect=fixed;fillColor=#fad9d5;fontSize=23;strokeColor=#ae4132;" vertex="1" parent="1">
          <mxGeometry x="240" y="300" width="40" height="40" as="geometry" />
        </mxCell>
        <mxCell id="ZXwB_dehdOLrY-nZqnuy-8" style="edgeStyle=orthogonalEdgeStyle;rounded=0;orthogonalLoop=1;jettySize=auto;html=1;entryX=0;entryY=0.5;entryDx=0;entryDy=0;fillColor=#b0e3e6;strokeColor=#0e8088;" edge="1" parent="1" source="ZXwB_dehdOLrY-nZqnuy-2" target="ZXwB_dehdOLrY-nZqnuy-3">
          <mxGeometry relative="1" as="geometry" />
        </mxCell>
        <mxCell id="ZXwB_dehdOLrY-nZqnuy-2" value="\(y\)" style="ellipse;whiteSpace=wrap;html=1;aspect=fixed;fillColor=#b0e3e6;fontSize=23;strokeColor=#0e8088;" vertex="1" parent="1">
          <mxGeometry x="400" y="300" width="40" height="40" as="geometry" />
        </mxCell>
        <mxCell id="ZXwB_dehdOLrY-nZqnuy-15" style="edgeStyle=orthogonalEdgeStyle;rounded=1;orthogonalLoop=1;jettySize=auto;html=1;entryX=0.5;entryY=0;entryDx=0;entryDy=0;fillColor=#d0cee2;strokeColor=#56517e;curved=0;" edge="1" parent="1" source="ZXwB_dehdOLrY-nZqnuy-3" target="ZXwB_dehdOLrY-nZqnuy-1">
          <mxGeometry relative="1" as="geometry">
            <Array as="points">
              <mxPoint x="580" y="280" />
              <mxPoint x="260" y="280" />
            </Array>
          </mxGeometry>
        </mxCell>
        <mxCell id="ZXwB_dehdOLrY-nZqnuy-3" value="\(z\)" style="ellipse;whiteSpace=wrap;html=1;aspect=fixed;fillColor=#d0cee2;fontSize=23;strokeColor=#56517e;" vertex="1" parent="1">
          <mxGeometry x="560" y="300" width="40" height="40" as="geometry" />
        </mxCell>
        <mxCell id="ZXwB_dehdOLrY-nZqnuy-10" style="edgeStyle=orthogonalEdgeStyle;rounded=1;orthogonalLoop=1;jettySize=auto;html=1;entryX=0.5;entryY=1;entryDx=0;entryDy=0;fillColor=#fad9d5;strokeColor=#ae4132;curved=0;" edge="1" parent="1" source="ZXwB_dehdOLrY-nZqnuy-4" target="ZXwB_dehdOLrY-nZqnuy-6">
          <mxGeometry relative="1" as="geometry">
            <Array as="points">
              <mxPoint x="260" y="420" />
              <mxPoint x="580" y="420" />
            </Array>
          </mxGeometry>
        </mxCell>
        <mxCell id="ZXwB_dehdOLrY-nZqnuy-4" value="\(\bar x\)" style="ellipse;whiteSpace=wrap;html=1;aspect=fixed;fillColor=#fad9d5;fontSize=23;strokeColor=#ae4132;" vertex="1" parent="1">
          <mxGeometry x="240" y="360" width="40" height="40" as="geometry" />
        </mxCell>
        <mxCell id="ZXwB_dehdOLrY-nZqnuy-13" style="edgeStyle=orthogonalEdgeStyle;rounded=0;orthogonalLoop=1;jettySize=auto;html=1;entryX=1;entryY=0.5;entryDx=0;entryDy=0;fillColor=#b0e3e6;strokeColor=#0e8088;" edge="1" parent="1" source="ZXwB_dehdOLrY-nZqnuy-5" target="ZXwB_dehdOLrY-nZqnuy-4">
          <mxGeometry relative="1" as="geometry" />
        </mxCell>
        <mxCell id="ZXwB_dehdOLrY-nZqnuy-5" value="\(\bar y\)" style="ellipse;whiteSpace=wrap;html=1;aspect=fixed;fillColor=#b0e3e6;fontSize=23;strokeColor=#0e8088;" vertex="1" parent="1">
          <mxGeometry x="400" y="360" width="40" height="40" as="geometry" />
        </mxCell>
        <mxCell id="ZXwB_dehdOLrY-nZqnuy-14" style="edgeStyle=orthogonalEdgeStyle;rounded=0;orthogonalLoop=1;jettySize=auto;html=1;fillColor=#d0cee2;strokeColor=#56517e;" edge="1" parent="1" source="ZXwB_dehdOLrY-nZqnuy-6">
          <mxGeometry relative="1" as="geometry">
            <mxPoint x="440" y="380" as="targetPoint" />
          </mxGeometry>
        </mxCell>
        <mxCell id="ZXwB_dehdOLrY-nZqnuy-6" value="\(\bar z\)" style="ellipse;whiteSpace=wrap;html=1;aspect=fixed;fillColor=#d0cee2;fontSize=23;strokeColor=#56517e;" vertex="1" parent="1">
          <mxGeometry x="560" y="360" width="40" height="40" as="geometry" />
        </mxCell>
        <mxCell id="ZXwB_dehdOLrY-nZqnuy-12" value="" style="endArrow=classic;html=1;rounded=0;exitX=1;exitY=0;exitDx=0;exitDy=0;entryX=0;entryY=1;entryDx=0;entryDy=0;fillColor=#b0e3e6;strokeColor=#0e8088;" edge="1" parent="1" source="ZXwB_dehdOLrY-nZqnuy-5" target="ZXwB_dehdOLrY-nZqnuy-3">
          <mxGeometry width="50" height="50" relative="1" as="geometry">
            <mxPoint x="450" y="370" as="sourcePoint" />
            <mxPoint x="500" y="320" as="targetPoint" />
          </mxGeometry>
        </mxCell>
        <mxCell id="ZXwB_dehdOLrY-nZqnuy-16" value="" style="endArrow=classic;html=1;rounded=0;exitX=0;exitY=0;exitDx=0;exitDy=0;entryX=1;entryY=1;entryDx=0;entryDy=0;fillColor=#d0cee2;strokeColor=#56517e;" edge="1" parent="1" source="ZXwB_dehdOLrY-nZqnuy-6" target="ZXwB_dehdOLrY-nZqnuy-2">
          <mxGeometry width="50" height="50" relative="1" as="geometry">
            <mxPoint x="444" y="376" as="sourcePoint" />
            <mxPoint x="576" y="324" as="targetPoint" />
          </mxGeometry>
        </mxCell>
      </root>
    </mxGraphModel>
  </diagram>
</mxfile>
